# xmcd
#
# Track frame offsets: 
#        150
#        24152
#        39580
#        56982
#        70880
#        86090
#        105960
#        123365
#        143302
#        150327
#
# Disc length: 2096 seconds
#
# Revision: 0
# Processed by: cddbd v1.5PL3 Copyright (c) Steve Scherf et al.
# Submitted via: ExactAudioCopy v0.95a3
#
DISCID=73082e0a
DTITLE=The Gatlin Brothers - A Christmas Celebration
DYEAR=2003
DGENRE=Gospel
TTITLE0=I Have Seen The Light
TTITLE1=No Star Tonight In Bethlehem
TTITLE2=Heaven's Child
TTITLE3=I Have Held My King
TTITLE4=Mary, Did You Know
TTITLE5=All We Like Sheep
TTITLE6=The First Noel
TTITLE7=They Saw A King
TTITLE8=Carol Of The Bells
TTITLE9=Alleluia
EXTD=
EXTT0=
EXTT1=
EXTT2=
EXTT3=
EXTT4=
EXTT5=
EXTT6=
EXTT7=
EXTT8=
EXTT9=
PLAYORDER=
